<svg xmlns="http://www.w3.org/2000/svg" width="24" height="24" viewBox="0 0 24 24">
  <g fill="none" fill-rule="evenodd" transform="translate(3 -1)">
    <rect width="21" height="25.2"/>
    <path fill="#009368" fill-rule="nonzero" d="M5.53662595,4.90096895 L12.5057903,4.91612059 C12.8923887,4.91696109 13.2051073,5.23104238 13.2042668,5.61764079 C13.2039109,5.78135689 13.1461823,5.93976949 13.0411208,6.06532888 L9.1853749,10.6733435 C8.93728309,10.9698388 8.9765219,11.4113139 9.27301724,11.6594057 C9.3989777,11.7648029 9.55798776,11.8225534 9.7222272,11.8225534 L12.0445474,11.8225534 C12.4311467,11.8225534 12.7445474,12.1359541 12.7445474,12.5225534 C12.7445474,12.7150476 12.6652781,12.899047 12.5253844,13.0312732 L3.6216502,21.4469956 C3.34069203,21.7125545 2.89765239,21.700071 2.63209347,21.4191128 C2.42347515,21.1983971 2.38098063,20.8683372 2.52688895,20.6019769 L4.62114152,16.7788523 C4.80687426,16.4397913 4.68257713,16.0143619 4.3435161,15.8286291 C4.24042182,15.7721556 4.12476591,15.7425534 4.00721722,15.7425534 L1.10199194,15.7425534 C0.715392625,15.7425534 0.401991955,15.4291528 0.401991955,15.0425535 C0.401991955,14.9397125 0.424652123,14.8381347 0.468360873,14.7450444 L4.90147301,5.30345821 C5.01704378,5.05731704 5.26470367,4.90037776 5.53662595,4.90096895 Z"/>
  </g>
</svg>
