<?xml version="1.0" encoding="utf-8"?>
<!-- Generator: Adobe Illustrator 24.1.3, SVG Export Plug-In . SVG Version: 6.00 Build 0)  -->
<svg version="1.1" id="Layer_1" xmlns="http://www.w3.org/2000/svg" xmlns:xlink="http://www.w3.org/1999/xlink" x="0px" y="0px"
	 viewBox="0 0 116 85" style="enable-background:new 0 0 116 85;" xml:space="preserve">
<style type="text/css">
	.st0{stroke:#231F20;stroke-width:0.216;stroke-miterlimit:22.9256;}
	.st1{fill-rule:evenodd;clip-rule:evenodd;fill:#FCD869;}
	.st2{display:none;fill:#FDF3EA;}
</style>
<g>
	<g>
		<path class="st0" d="M104.7,84.26l-0.06-8.08c-0.01-0.97,0.2-1.88,0.61-2.7s1-1.49,1.75-2c0.75-0.51,1.56-0.77,2.44-0.79
			c0.62,0,1.31,0.19,2.07,0.57c0.76,0.38,1.41,1,1.94,1.88c0.54,0.87,0.81,1.96,0.82,3.27l0.05,7.86h-2.06l-0.05-7.81
			c-0.01-0.9-0.27-1.7-0.79-2.39c-0.52-0.69-1.18-1.04-1.97-1.06c-0.78,0-1.43,0.32-1.95,0.95c-0.52,0.63-0.77,1.39-0.77,2.28
			l0.05,8.03H104.7L104.7,84.26z"/>
		<path class="st0" d="M93.36,77.42c0.01,1.31,0.32,2.44,0.92,3.39c0.61,0.96,1.57,1.43,2.9,1.41c0.7,0,1.32-0.17,1.87-0.5
			c0.54-0.33,0.96-0.86,1.26-1.6c0.3-0.74,0.44-1.67,0.41-2.81c-0.04-0.86-0.22-1.61-0.54-2.25c-0.32-0.63-0.76-1.13-1.32-1.48
			c-0.56-0.35-1.17-0.52-1.84-0.52c-1.17,0.02-2.07,0.47-2.69,1.37C93.71,75.32,93.39,76.32,93.36,77.42L93.36,77.42z M91.21,77.48
			c0.01-1.29,0.29-2.44,0.84-3.46c0.55-1.02,1.28-1.83,2.17-2.43c0.89-0.6,1.81-0.88,2.74-0.84c0.98,0.04,1.92,0.31,2.82,0.83
			c0.9,0.51,1.64,1.28,2.22,2.3c0.58,1.02,0.88,2.24,0.89,3.66c0.01,1.03-0.19,2.08-0.6,3.16c-0.41,1.08-1.03,1.97-1.88,2.69
			c-0.84,0.72-1.83,1.1-2.95,1.16c-1.79,0.07-3.28-0.57-4.47-1.94c-1.19-1.37-1.8-3.04-1.85-5.01c0.03-0.04,0.05-0.06,0.05-0.08
			C91.21,77.49,91.21,77.48,91.21,77.48L91.21,77.48z"/>
		<path class="st0" d="M74.87,84.26l-0.06-9.1c0.03-0.79,0.21-1.53,0.55-2.21c0.34-0.68,0.83-1.22,1.47-1.63
			c0.64-0.4,1.36-0.6,2.16-0.58c1.26,0.04,2.3,0.66,3.1,1.88c0.72-1.25,1.85-1.88,3.38-1.88c0.69,0,1.34,0.2,1.96,0.61
			c0.62,0.4,1.11,0.95,1.46,1.63c0.36,0.68,0.54,1.41,0.54,2.18l0.06,9.1h-2.06l-0.06-8.36c-0.01-0.74-0.16-1.39-0.47-1.96
			c-0.31-0.57-0.83-0.86-1.56-0.88c-0.76,0-1.32,0.28-1.67,0.84c-0.35,0.56-0.52,1.23-0.51,2l0.06,8.36h-2.1l-0.06-8.19
			c-0.01-0.94-0.19-1.68-0.55-2.22c-0.36-0.54-0.88-0.8-1.55-0.79c-0.83,0.02-1.38,0.32-1.67,0.9c-0.28,0.58-0.42,1.34-0.42,2.28
			l0.05,8.03H74.87L74.87,84.26z"/>
		<polygon class="st0" points="69.47,84.26 69.38,71.02 71.44,71.02 71.53,84.26 69.47,84.26 		"/>
		<path class="st0" d="M69.18,67.99c0.01-0.4,0.14-0.74,0.37-1.01c0.23-0.27,0.52-0.4,0.86-0.4c0.36,0,0.65,0.13,0.88,0.4
			c0.23,0.27,0.34,0.62,0.35,1.06c0,0.44-0.11,0.8-0.33,1.06c-0.22,0.27-0.5,0.4-0.83,0.4c-0.34,0-0.65-0.14-0.91-0.43
			C69.29,68.79,69.16,68.43,69.18,67.99L69.18,67.99z"/>
		<path class="st0" d="M59.52,64.92h2.15l0.09,12.61c0.05,0.92,0.19,1.7,0.4,2.33c0.21,0.63,0.57,1.12,1.06,1.46
			c0.49,0.34,1.14,0.51,1.96,0.51h2.1l0.02,2.43h-2.66c-1.11,0-2.18-0.46-3.24-1.39c-1.05-0.93-1.64-2.37-1.78-4.32L59.52,64.92
			L59.52,64.92z"/>
		<polygon class="st0" points="49.87,64.92 51.93,64.92 52.06,84.26 50,84.26 49.87,64.92 		"/>
		<path class="st0" d="M38.97,77.95l5.56-3.64c-0.71-0.83-1.58-1.24-2.63-1.24c-1.14,0-2.04,0.48-2.7,1.43
			c-0.66,0.96-0.95,2.08-0.87,3.37c0.05,1.2,0.41,2.23,1.07,3.09c0.66,0.86,1.54,1.29,2.65,1.27c1.14-0.02,1.99-0.38,2.55-1.08
			c0.56-0.7,0.95-1.73,1.16-3.09l2.06,0.33c-0.02,0.92-0.26,1.85-0.71,2.8c-0.45,0.95-1.11,1.75-2.01,2.4
			c-0.89,0.65-1.95,0.99-3.18,1.01c-1,0-1.94-0.3-2.82-0.91s-1.59-1.43-2.12-2.46c-0.53-1.03-0.8-2.12-0.81-3.28
			c-0.06-2.32,0.5-4.1,1.69-5.34c1.19-1.24,2.53-1.86,4.01-1.86c1.28,0,2.36,0.34,3.24,1.03c0.89,0.69,1.64,1.74,2.28,3.16
			l-7.54,4.97L38.97,77.95L38.97,77.95z"/>
		<path class="st0" d="M29.03,80.12l-0.09-12.47h2.03L31,71.02h4.02l0.02,2.32h-4.02l0.05,7.26c0,0.35,0.13,0.66,0.38,0.94
			c0.25,0.28,0.62,0.41,1.1,0.41h2.55l0.02,2.32h-2.59c-1.18,0-2.06-0.4-2.63-1.19C29.32,82.29,29.04,81.3,29.03,80.12L29.03,80.12z
			"/>
		<path class="st0" d="M17.39,77.42c0.01,1.31,0.32,2.44,0.92,3.39c0.61,0.96,1.57,1.43,2.9,1.41c0.7,0,1.32-0.17,1.87-0.5
			c0.54-0.33,0.96-0.86,1.26-1.6c0.3-0.74,0.44-1.67,0.41-2.81c-0.04-0.86-0.22-1.61-0.54-2.25c-0.32-0.63-0.76-1.13-1.32-1.48
			c-0.56-0.35-1.17-0.52-1.84-0.52c-1.17,0.02-2.07,0.47-2.69,1.37C17.74,75.32,17.42,76.32,17.39,77.42L17.39,77.42z M15.24,77.48
			c0.01-1.29,0.29-2.44,0.84-3.46c0.55-1.02,1.28-1.83,2.17-2.43c0.89-0.6,1.81-0.88,2.74-0.84c0.98,0.04,1.92,0.31,2.82,0.83
			s1.64,1.28,2.22,2.3c0.58,1.02,0.88,2.24,0.89,3.66c0.01,1.03-0.19,2.08-0.6,3.16c-0.41,1.08-1.03,1.97-1.88,2.69
			c-0.84,0.72-1.83,1.1-2.95,1.16c-1.79,0.07-3.28-0.57-4.47-1.94c-1.19-1.37-1.8-3.04-1.85-5.01c0.03-0.04,0.05-0.06,0.05-0.08
			C15.24,77.49,15.24,77.48,15.24,77.48L15.24,77.48z"/>
		<polygon class="st0" points="1.8,84.26 1.67,64.87 3.84,64.87 3.9,72.95 10.98,72.95 10.93,64.81 13.17,64.81 13.3,84.26 
			11.06,84.26 11,75.38 3.91,75.38 3.97,84.26 1.8,84.26 		"/>
	</g>
	<g>
		<path class="st1" d="M24.9,3.77l65.77-0.05l0.67,49.01l-65.97,0L24.9,3.77L24.9,3.77z M22.26,56.09l71.72-0.03L93.96,0.41
			L22.02,0.42L22.26,56.09L22.26,56.09z"/>
		<path class="st1" d="M54.76,38.13c2.19-5.81,7.82-13.28,13.56-14.75c-4.77,5.95-9.27,9.97-11.2,20.82
			c17.22-1.33,24.7-11.89,24.47-31.67C66.25,10.46,53.59,21.4,54.76,38.13L54.76,38.13z"/>
		<path class="st1" d="M51.09,37.67c1.38-14-4.95-18.51-16.68-19.21c0.12,6.34,1.19,11.26,4.21,14.73
			C41.06,36,46.1,39.08,51.09,37.67L51.09,37.67z"/>
	</g>
</g>
</svg>
