<svg width="370" height="145" viewBox="0 0 370 145" fill="none" xmlns="http://www.w3.org/2000/svg">
<g clip-path="url(#clip0_3123_31264)">
<path d="M191.282 134.317C188.329 134.312 185.574 132.802 183.989 130.318C182.399 127.828 182.181 124.705 183.421 122.026C186.497 115.325 196.071 115.325 199.147 122.026C200.383 124.705 200.17 127.828 198.58 130.318C196.985 132.807 194.235 134.312 191.282 134.317Z" fill="white" stroke="#CCCCCC"/>
<path d="M190.861 143.924C190.685 143.924 190.543 143.782 190.543 143.607V124.605C190.543 124.43 190.685 124.288 190.861 124.288C191.036 124.288 191.178 124.43 191.178 124.605V143.607C191.178 143.782 191.036 143.924 190.861 143.924Z" fill="#CCCCCC"/>
<path d="M191.074 127.876C190.993 127.876 190.913 127.847 190.851 127.786C190.728 127.663 190.728 127.464 190.851 127.341L193.809 124.388C193.932 124.265 194.131 124.265 194.254 124.388C194.377 124.511 194.377 124.71 194.254 124.833L191.296 127.786C191.235 127.847 191.154 127.876 191.074 127.876Z" fill="#CCCCCC"/>
<path d="M190.648 129.565C190.534 129.565 190.425 129.504 190.368 129.4L186.989 123.067C186.909 122.911 186.966 122.722 187.117 122.641C187.273 122.561 187.463 122.618 187.543 122.774L190.922 129.106C191.003 129.262 190.946 129.452 190.794 129.532C190.747 129.556 190.695 129.57 190.648 129.57V129.565Z" fill="#CCCCCC"/>
<path d="M176 137.582C176.563 135.822 178.395 134.255 181.078 134.677C184.069 135.145 185.2 139.177 185.2 139.177C187.363 139.376 188.561 140.19 189.18 141.222C190.553 143.503 189.119 146.83 189.119 146.83H176" fill="white"/>
<path d="M176 137.582C176.563 135.822 178.395 134.255 181.078 134.677C184.069 135.145 185.2 139.177 185.2 139.177C187.363 139.376 188.561 140.19 189.18 141.222C190.553 143.503 189.119 146.83 189.119 146.83H176" stroke="#CCCCCC"/>
<path d="M186.686 146.83C186.686 146.83 184.344 145.855 185.224 143.512C185.224 143.512 186.298 141.317 188.494 142.438C188.494 142.438 189.133 139.897 191.765 140.682C194.084 141.378 193.62 144 193.62 144C193.62 144 196.232 144.379 195.063 146.825H186.691L186.686 146.83Z" fill="white" stroke="#CCCCCC"/>
<path d="M67.7879 138.468C69.7614 138.465 71.602 137.456 72.6615 135.796C73.7241 134.132 73.8696 132.045 73.041 130.255C70.9853 125.777 64.5874 125.777 62.5317 130.255C61.7063 132.045 61.8486 134.132 62.9112 135.796C63.977 137.459 65.8145 138.465 67.7879 138.468Z" fill="white" stroke="#CCCCCC"/>
<path d="M68.0695 144.888C68.1865 144.888 68.2814 144.793 68.2814 144.676V131.978C68.2814 131.861 68.1865 131.767 68.0695 131.767C67.9525 131.767 67.8576 131.861 67.8576 131.978V144.676C67.8576 144.793 67.9525 144.888 68.0695 144.888Z" fill="#CCCCCC"/>
<path d="M67.9271 134.164C67.9809 134.164 68.0347 134.145 68.0758 134.104C68.158 134.022 68.158 133.889 68.0758 133.806L66.0992 131.833C66.0169 131.751 65.8841 131.751 65.8019 131.833C65.7197 131.915 65.7197 132.048 65.8019 132.13L67.7785 134.104C67.8196 134.145 67.8734 134.164 67.9271 134.164Z" fill="#CCCCCC"/>
<path d="M68.2118 135.293C68.2877 135.293 68.3605 135.252 68.3984 135.182L70.6565 130.951C70.7103 130.846 70.6723 130.72 70.5711 130.666C70.4667 130.612 70.3402 130.65 70.2865 130.755L68.0284 134.986C67.9746 135.091 68.0126 135.217 68.1138 135.271C68.1454 135.287 68.1802 135.296 68.2118 135.296V135.293Z" fill="#CCCCCC"/>
<path d="M78 140.65C77.6237 139.474 76.3997 138.427 74.6065 138.709C72.6078 139.022 71.8519 141.716 71.8519 141.716C70.4066 141.849 69.6065 142.393 69.1922 143.082C68.275 144.607 69.2333 146.83 69.2333 146.83H78" fill="white"/>
<path d="M78 140.65C77.6237 139.474 76.3997 138.427 74.6065 138.709C72.6078 139.022 71.8519 141.716 71.8519 141.716C70.4066 141.849 69.6065 142.393 69.1922 143.082C68.275 144.607 69.2333 146.83 69.2333 146.83H78" stroke="#CCCCCC"/>
<path d="M70.8588 146.83C70.8588 146.83 72.4243 146.179 71.8361 144.613C71.8361 144.613 71.1182 143.146 69.6507 143.895C69.6507 143.895 69.2238 142.197 67.4654 142.722C65.9157 143.187 66.2256 144.939 66.2256 144.939C66.2256 144.939 64.4799 145.192 65.261 146.827H70.8557L70.8588 146.83Z" fill="white" stroke="#CCCCCC"/>
<path d="M91.8888 94L76 100.285V146H108V100.285L91.8888 94Z" fill="white" stroke="#CCCCCC" stroke-linecap="round" stroke-linejoin="round"/>
<path d="M92.4318 133.251H97.8692C98.1092 133.251 98.3039 133.45 98.3039 133.699V145.792C98.3039 146.041 98.1092 146.24 97.8692 146.24H92.4318C92.1918 146.24 91.9972 146.041 91.9972 145.792V133.699C91.9972 133.45 92.1918 133.251 92.4318 133.251ZM85.7493 133.251H91.1868C91.2999 133.251 91.4131 133.296 91.4946 133.382C91.5761 133.468 91.6214 133.581 91.6214 133.699V145.792C91.6214 145.909 91.5761 146.023 91.4946 146.109C91.4131 146.195 91.3045 146.24 91.1868 146.24H85.7493C85.5094 146.24 85.3147 146.041 85.3147 145.792V133.699C85.3328 133.459 85.5184 133.269 85.7493 133.251Z" fill="white" stroke="#CCCCCC" stroke-linecap="round" stroke-linejoin="round"/>
<path d="M90.494 138.819H93.5002C94.3061 138.819 94.9671 139.01 94.9671 139.272V140.218C94.9671 140.486 94.3061 140.671 93.5002 140.671H90.494C89.6881 140.671 89.0271 140.481 89.0271 140.218V139.272C89.0271 139.005 89.6881 138.819 90.494 138.819Z" fill="white" stroke="#CCCCCC" stroke-linecap="round" stroke-linejoin="round"/>
<path d="M83.8516 120.024V124H79V120.024C79 118.698 80.0878 117.626 81.4258 117.626C82.7639 117.626 83.8516 118.702 83.8516 120.024ZM93.9235 120.024V124H89.0719V120.024C89.0719 118.698 90.1597 117.626 91.4977 117.626C92.8358 117.626 93.9235 118.702 93.9235 120.024ZM104 120.024V124H99.1484V120.024C99.1484 118.698 100.236 117.626 101.574 117.626C102.912 117.626 104 118.702 104 120.024ZM83.8516 109.398V113.374H79V109.398C79 108.072 80.0878 107 81.4258 107C82.7639 107 83.8516 108.076 83.8516 109.398ZM93.9235 109.398V113.374H89.0719V109.398C89.0719 108.072 90.1597 107 91.4977 107C92.8358 107 93.9235 108.076 93.9235 109.398ZM104 109.398V113.374H99.1484V109.398C99.1484 108.072 100.236 107 101.574 107C102.912 107 104 108.076 104 109.398Z" stroke="#FFCC09" stroke-miterlimit="10"/>
<path d="M113.355 78.9871H127.233C128.119 79.0714 128.991 78.738 129.517 78.1055C130.043 77.4769 130.148 76.649 129.789 75.936C129.429 75.2231 128.662 74.7286 127.777 74.6443H127.623C127.544 74.6443 127.312 74.169 127.312 74.1C127.023 73.6247 126.685 73.1686 126.304 72.7431C125.002 71.252 123.078 70.2746 120.951 70.0293C118.878 69.8683 116.809 70.3743 115.134 71.4552C113.815 72.3368 112.653 73.4905 112.653 75.0506L112.189 75.1847C110.093 76.1353 110.948 78.9833 113.35 78.9833L113.355 78.9871Z" fill="white" stroke="#CCCCCC" stroke-linecap="round" stroke-linejoin="round"/>
<path d="M158 114H161" stroke="#CCCCCC" stroke-linecap="round" stroke-linejoin="round"/>
<path d="M168.855 100.541V146H177V107.396C177 103.589 174.183 100.541 170.704 100.541H168.855ZM129 146H168.855V70.2955C168.855 66.8096 166.493 64 163.617 64H134.239C131.363 64 129 66.8054 129 70.2955V145.996V146Z" fill="white"/>
<path d="M168.855 146V100.541H170.704C174.183 100.541 177 103.589 177 107.396V146H168.855ZM168.855 146H129V145.996V70.2955C129 66.8054 131.363 64 134.239 64H163.617C166.493 64 168.855 66.8096 168.855 70.2955V146Z" stroke="#CCCCCC"/>
<path d="M137 145.835L161 146V132.161C161 130.967 159.984 130 158.732 130H139.311C138.059 130 137.043 130.967 137.043 132.161V145.835H137Z" fill="white" stroke="#FFCC09" stroke-linecap="round" stroke-linejoin="round"/>
<path d="M129.173 101V146H121V107.786C121 104.017 123.836 101 127.31 101H129.173ZM139.062 102.26C140.013 102.26 140.782 103.017 140.782 103.951V106.034C140.782 106.967 140.013 107.724 139.062 107.724C138.111 107.724 137.342 106.967 137.342 106.034V103.951C137.342 103.017 138.111 102.26 139.062 102.26ZM139.067 111.092C140.017 111.092 140.787 111.848 140.787 112.782V114.865C140.787 115.799 140.017 116.555 139.067 116.555C138.116 116.555 137.347 115.799 137.347 114.865V112.782C137.334 112.332 137.511 111.894 137.837 111.571C138.162 111.253 138.606 111.075 139.067 111.088V111.092ZM145.947 102.26C146.898 102.26 147.667 103.017 147.667 103.951V106.034C147.667 106.967 146.898 107.724 145.947 107.724C144.996 107.724 144.227 106.967 144.227 106.034V103.951C144.227 103.017 144.996 102.26 145.947 102.26ZM145.947 111.092C146.898 111.092 147.667 111.848 147.667 112.782V114.865C147.667 115.799 146.898 116.555 145.947 116.555C144.996 116.555 144.227 115.799 144.227 114.865V112.782C144.214 112.332 144.391 111.894 144.717 111.571C145.042 111.253 145.486 111.075 145.947 111.088V111.092ZM152.827 102.26C153.778 102.26 154.547 103.017 154.547 103.951V106.034C154.547 106.967 153.778 107.724 152.827 107.724C151.876 107.724 151.107 106.967 151.107 106.034V103.951C151.128 103.025 151.889 102.281 152.827 102.26ZM152.827 111.092C153.778 111.092 154.547 111.848 154.547 112.782V114.865C154.547 115.799 153.778 116.555 152.827 116.555C151.876 116.555 151.107 115.799 151.107 114.865V112.782C151.128 111.856 151.889 111.112 152.827 111.092ZM159.28 102.26C160.231 102.26 161 103.017 161 103.951V106.034C161 106.967 160.231 107.724 159.28 107.724C158.329 107.724 157.56 106.967 157.56 106.034V103.951C157.581 103.025 158.342 102.281 159.28 102.26ZM159.28 111.092C160.231 111.092 161 111.848 161 112.782V114.865C161 115.799 160.231 116.555 159.28 116.555C158.329 116.555 157.56 115.799 157.56 114.865V112.782C157.581 111.856 158.342 111.112 159.28 111.092ZM139.062 119.502C140.013 119.502 140.782 120.258 140.782 121.192V123.275C140.782 123.725 140.601 124.155 140.279 124.473C139.958 124.791 139.519 124.969 139.062 124.969C138.111 124.969 137.342 124.213 137.342 123.279V121.196C137.342 120.262 138.111 119.506 139.062 119.506V119.502ZM145.947 119.502C146.898 119.502 147.667 120.258 147.667 121.192V123.275C147.667 124.209 146.898 124.965 145.947 124.965C144.996 124.965 144.227 124.209 144.227 123.275V121.192C144.227 120.258 144.996 119.502 145.947 119.502ZM152.827 119.502C153.778 119.502 154.547 120.258 154.547 121.192V123.275C154.547 124.209 153.778 124.965 152.827 124.965C151.876 124.965 151.107 124.209 151.107 123.275V121.192C151.128 120.266 151.889 119.522 152.827 119.502ZM159.28 119.502C160.231 119.502 161 120.258 161 121.192V123.275C161 124.209 160.231 124.965 159.28 124.965C158.329 124.965 157.56 124.209 157.56 123.275V121.192C157.581 120.266 158.342 119.522 159.28 119.502Z" fill="white" stroke="#CCCCCC"/>
<path d="M149 130V146" stroke="#FFCC09" stroke-linecap="square" stroke-linejoin="round"/>
<path d="M142.706 61H155.294C158.445 61 161 63.5269 161 66.6476V91.3524C161 94.4731 158.445 97 155.294 97H142.706C139.555 97 137 94.4731 137 91.3524V66.6476C137 63.5269 139.555 61 142.706 61Z" fill="white" stroke="#FFCC09" stroke-linecap="round" stroke-linejoin="round"/>
<path d="M152.29 72.183C151.919 71.9719 151.456 71.9412 151.055 72.1024C150.204 72.3058 146.197 73.4033 145.755 73.6643C145.258 73.9099 144.962 74.4049 145.004 74.923V83.3309C145.041 83.9142 145.463 84.413 146.064 84.5934C146.49 84.7546 150.922 85.8905 151.097 85.9327C151.485 86.0632 151.919 86.0018 152.249 85.7677C152.729 85.4261 153.004 84.9004 153 84.3478V73.53C153.008 73.0042 152.745 72.5053 152.29 72.1868V72.183ZM152.249 84.3286C152.236 84.6663 152.086 84.9848 151.823 85.2227C151.681 85.3187 151.493 85.334 151.335 85.2611C150.062 84.9388 146.698 84.0408 146.344 83.9218C146.256 83.8835 146.21 83.8413 146.122 83.799C146.089 83.7645 146.076 83.7146 146.097 83.6724C146.118 83.6302 146.16 83.5995 146.21 83.5957H150.033C150.208 83.6187 150.383 83.565 150.513 83.4537C150.642 83.3424 150.709 83.1851 150.696 83.0239V75.0227C150.692 74.8654 150.621 74.7196 150.496 74.6121C150.371 74.5047 150.204 74.4509 150.037 74.4586H146.214C146.16 74.4586 146.11 74.4241 146.097 74.3742C146.085 74.3243 146.114 74.2744 146.168 74.2552L146.214 74.213C146.477 74.0518 149.044 73.3227 151.335 72.7126C151.518 72.632 151.731 72.632 151.911 72.7126C152.165 72.916 152.295 73.2191 152.261 73.5261V84.3286H152.244H152.249ZM149.377 79.2133C149.377 79.0636 149.473 78.9293 149.624 78.8717C149.774 78.8142 149.945 78.8449 150.062 78.9523C150.179 79.0598 150.212 79.2171 150.149 79.3552C150.087 79.4934 149.941 79.5817 149.778 79.5817C149.561 79.5817 149.382 79.4205 149.382 79.2171L149.377 79.2133Z" fill="#FFCC09"/>
<path d="M132.082 53.5017C131.339 53.7326 130.6 53.9804 129.869 54.2408C129.42 53.7032 128.962 53.1741 128.496 52.645C128.416 52.5526 128.274 52.5232 128.139 52.5736C128.009 52.624 127.917 52.7416 127.921 52.8634C127.921 53.5647 127.938 54.2701 127.959 54.9672C127.232 55.2612 126.514 55.5719 125.796 55.8995C125.674 55.9541 125.595 56.0758 125.603 56.1976C125.611 56.3194 125.708 56.4118 125.834 56.4286C126.577 56.5336 127.312 56.6512 128.034 56.7897C128.072 57.4868 128.114 58.1797 128.169 58.8684C128.169 58.9986 128.261 59.1036 128.391 59.1288C128.521 59.1539 128.656 59.0868 128.715 58.9734C129.097 58.3729 129.496 57.7724 129.911 57.1803C130.617 57.344 131.31 57.5246 131.99 57.722C132.112 57.7682 132.25 57.7304 132.334 57.6254C132.414 57.5204 132.41 57.3776 132.326 57.2853C131.906 56.7351 131.482 56.185 131.045 55.6433C131.49 55.0596 131.952 54.4843 132.431 53.9132C132.519 53.8124 132.523 53.6738 132.444 53.5731C132.364 53.4765 132.217 53.4429 132.087 53.4975L132.082 53.5017Z" fill="white" stroke="#CCCCCC"/>
<path d="M141.396 51.5238C140.632 51.6162 139.868 51.7212 139.108 51.8471C138.768 51.2382 138.415 50.6293 138.054 50.0288C137.995 49.9239 137.856 49.8693 137.722 49.8945C137.584 49.9197 137.479 50.0162 137.458 50.138C137.336 50.8309 137.222 51.5196 137.122 52.2125C136.366 52.3679 135.61 52.5358 134.858 52.7248C134.728 52.7584 134.631 52.8592 134.619 52.981C134.606 53.1027 134.682 53.2077 134.804 53.2497C135.505 53.4891 136.198 53.7452 136.874 54.014C136.786 54.7027 136.706 55.3914 136.634 56.08C136.609 56.206 136.685 56.3278 136.802 56.3782C136.924 56.4244 137.063 56.3866 137.143 56.2816C137.621 55.7609 138.113 55.2486 138.625 54.7405C139.28 55.0344 139.923 55.3368 140.552 55.6559C140.662 55.7231 140.809 55.7105 140.905 55.6223C141.002 55.5341 141.023 55.3956 140.96 55.2864C140.649 54.6691 140.334 54.0518 140.007 53.4387C140.544 52.9474 141.094 52.4644 141.661 51.9941C141.766 51.9101 141.795 51.7757 141.732 51.6624C141.669 51.5532 141.531 51.4944 141.396 51.5238Z" fill="white" stroke="#CCCCCC"/>
<path d="M150.866 51.2634C150.097 51.213 149.329 51.1836 148.56 51.171C148.334 50.5118 148.099 49.8483 147.855 49.1932C147.813 49.0798 147.691 49 147.553 49C147.414 49 147.292 49.0798 147.25 49.1932C147.007 49.8525 146.772 50.5118 146.545 51.171C145.776 51.1878 145.008 51.2172 144.239 51.2676C144.109 51.276 143.992 51.36 143.962 51.4776C143.929 51.5952 143.983 51.7128 144.092 51.7757C144.735 52.1369 145.365 52.5148 145.978 52.9012C145.768 53.5647 145.566 54.2281 145.373 54.8916C145.327 55.0134 145.373 55.1436 145.487 55.215C145.596 55.2822 145.743 55.2696 145.835 55.1814C146.394 54.7573 146.969 54.3415 147.561 53.9342C148.153 54.3415 148.728 54.7573 149.287 55.1814C149.384 55.2696 149.526 55.2822 149.636 55.215C149.745 55.1478 149.795 55.0134 149.749 54.8916C149.556 54.2281 149.354 53.5647 149.144 52.9012C149.757 52.5148 150.387 52.1411 151.03 51.7757C151.147 51.7128 151.202 51.5826 151.16 51.465C151.118 51.3432 150.992 51.2634 150.853 51.2676L150.866 51.2634Z" fill="white" stroke="#CCCCCC"/>
<path d="M160.256 52.7164C159.504 52.5274 158.748 52.3594 157.992 52.2041C157.887 51.5112 157.774 50.8225 157.652 50.1296C157.631 50.012 157.526 49.9112 157.387 49.886C157.249 49.8608 157.115 49.9154 157.056 50.0204C156.695 50.6251 156.346 51.2298 156.006 51.8387C155.246 51.7127 154.482 51.6078 153.717 51.5154C153.587 51.4986 153.461 51.5616 153.407 51.6707C153.352 51.7799 153.386 51.9059 153.482 51.9899C154.049 52.4644 154.603 52.9473 155.137 53.4345C154.809 54.0476 154.494 54.6649 154.183 55.2822C154.116 55.3913 154.141 55.5341 154.238 55.6181C154.335 55.7063 154.477 55.7189 154.591 55.6517C155.221 55.3325 155.863 55.0302 156.518 54.7362C157.026 55.2402 157.522 55.7567 158.001 56.2774C158.08 56.3824 158.219 56.4202 158.341 56.374C158.462 56.3278 158.534 56.2018 158.509 56.0758C158.437 55.3871 158.358 54.6984 158.269 54.0098C158.945 53.741 159.638 53.4848 160.34 53.2455C160.466 53.2035 160.541 53.0859 160.524 52.9599C160.503 52.834 160.394 52.7332 160.256 52.7122V52.7164Z" fill="white" stroke="#CCCCCC"/>
<path d="M169.322 55.8869C168.608 55.5593 167.886 55.2486 167.159 54.9588C167.18 54.2575 167.193 53.5562 167.193 52.8549C167.193 52.7332 167.105 52.6156 166.975 52.5652C166.844 52.5148 166.697 52.5442 166.618 52.6366C166.151 53.1615 165.694 53.6948 165.244 54.2323C164.51 53.9678 163.77 53.7242 163.031 53.4932C162.901 53.4555 162.767 53.4932 162.695 53.5898C162.624 53.6864 162.632 53.8166 162.712 53.9174C163.191 54.4885 163.653 55.0638 164.098 55.6475C163.665 56.1892 163.237 56.7393 162.817 57.2894C162.733 57.386 162.729 57.5288 162.809 57.6296C162.889 57.7346 163.031 57.7723 163.153 57.7262C163.833 57.5288 164.531 57.3482 165.232 57.1844C165.648 57.7765 166.046 58.3729 166.429 58.9776C166.487 59.0951 166.622 59.1581 166.752 59.1329C166.882 59.1077 166.975 59.0027 166.975 58.8726C167.029 58.1797 167.071 57.4868 167.109 56.7939C167.831 56.6553 168.566 56.5378 169.309 56.4328C169.444 56.416 169.54 56.3152 169.544 56.1892C169.544 56.0632 169.456 55.9414 169.322 55.8911V55.8869Z" fill="white" stroke="#CCCCCC"/>
<path d="M327.569 48.2623C330.657 48.2623 333.161 45.9101 333.161 43.0085C333.161 40.1069 330.657 37.7547 327.569 37.7547C324.48 37.7547 321.976 40.1069 321.976 43.0085C321.976 45.9101 324.48 48.2623 327.569 48.2623Z" stroke="#FFCC09" stroke-linecap="square" stroke-linejoin="round"/>
<path d="M327.881 33.0868V29M320.115 36.0018L317.007 33.0819M317.007 42.7155H312.656M320.115 50.0103L317.007 52.9302M327.881 52.9302V57.017M335.028 50.0103L338.136 52.9302M338.131 42.7155H342.481M335.028 36.0018L338.136 33.0819" stroke="#FFCC09" stroke-linecap="round" stroke-linejoin="round"/>
<path d="M332.86 61.4612H307.576C302.1 61.4612 301.244 54.097 306.62 53.0194H306.974C307.074 53.0194 307.476 52.0362 307.576 51.9418C308.121 51.0231 308.739 50.1442 309.437 49.3149C311.848 46.4993 315.268 44.3441 319.19 44.0164C322.986 43.6837 326.781 44.6669 329.847 46.7824C332.257 48.426 334.372 50.8146 334.372 53.7245C334.652 53.809 334.922 53.9182 335.175 54.0523C338.897 55.974 337.237 61.4662 332.865 61.4662L332.86 61.4612Z" fill="white" stroke="#CCCCCC"/>
<path d="M295.416 104.504C293.469 104.504 291.892 106.08 291.892 108.028V141.335C291.892 142.269 292.262 143.168 292.924 143.83C293.586 144.492 294.482 144.862 295.416 144.862H318.484C319.418 144.862 320.317 144.492 320.976 143.83C321.638 143.168 322.008 142.272 322.008 141.335V108.017C322.003 106.075 320.426 104.504 318.484 104.504H295.416ZM300.094 104.504H313.808V101.854C313.8 101.211 313.258 100.694 312.588 100.694H301.311C300.639 100.694 300.091 101.219 300.091 101.868V104.504H300.094Z" fill="white" stroke="#CCCCCC"/>
<path d="M303.362 99C302.97 99 302.657 99.5964 302.657 100.329C302.657 101.061 302.97 101.658 303.362 101.658H310.538C310.93 101.658 311.243 101.061 311.243 100.329C311.243 99.5964 310.93 99 310.538 99H303.362Z" fill="white" stroke="#CCCCCC"/>
<path d="M296.698 107.126V141.973" stroke="#FFCC09" stroke-linecap="round" stroke-linejoin="round"/>
<path d="M301.823 107.11V141.989" stroke="#FFCC09" stroke-linecap="round" stroke-linejoin="round"/>
<path d="M306.949 107.11V141.989" stroke="#FFCC09" stroke-linecap="round" stroke-linejoin="round"/>
<path d="M312.076 107.11V141.989" stroke="#FFCC09" stroke-linecap="round" stroke-linejoin="round"/>
<path d="M317.202 107.11V141.989" stroke="#FFCC09" stroke-linecap="round" stroke-linejoin="round"/>
<path d="M285.419 122.471V140.823C285.419 143.075 283.594 144.9 281.342 144.9H250.077C247.825 144.9 246 143.075 246 140.823V122.471C246 120.219 247.825 118.395 250.077 118.395H281.342C283.594 118.395 285.419 120.219 285.419 122.471ZM273.864 115.198V118.324H257.552V115.198C257.552 114.765 257.723 114.351 258.028 114.043C258.333 113.738 258.75 113.567 259.183 113.567H272.233C273.134 113.567 273.864 114.296 273.864 115.198Z" fill="white" stroke="#CCCCCC"/>
<path d="M271.827 114.928H259.594C259.219 114.928 258.914 115.233 258.914 115.609V118.327H272.508V115.609C272.508 115.233 272.203 114.928 271.827 114.928Z" fill="white" stroke="#CCCCCC"/>
<path d="M249.688 121.925L249.211 124.943C249.152 125.315 249.405 125.663 249.776 125.722L262.528 127.742C262.9 127.801 263.248 127.547 263.307 127.176L263.785 124.158C263.844 123.787 263.591 123.438 263.219 123.379L250.467 121.36C250.096 121.301 249.747 121.554 249.688 121.925Z" stroke="#FFCC09" stroke-linecap="square" stroke-linejoin="round"/>
<path d="M252.626 141.433C254.221 141.433 255.515 140.14 255.515 138.544C255.515 136.948 254.221 135.655 252.626 135.655C251.03 135.655 249.736 136.948 249.736 138.544C249.736 140.14 251.03 141.433 252.626 141.433Z" stroke="#FFCC09" stroke-linecap="square" stroke-linejoin="round"/>
<path d="M246.84 70.9767H269.484C270.927 71.1285 272.35 70.5304 273.212 69.4146C274.073 68.2988 274.242 66.8259 273.652 65.5494C273.062 64.2818 271.816 63.407 270.365 63.2553H270.112C269.981 63.2553 269.606 62.4073 269.606 62.2912C269.129 61.4432 268.585 60.6309 267.958 59.8811C265.832 57.2299 262.695 55.4892 259.23 55.0518C255.849 54.7662 252.477 55.6678 249.743 57.587C247.589 59.158 245.697 61.2111 245.697 63.9783L244.938 64.2194C241.52 65.9065 242.916 70.9767 246.84 70.9767Z" fill="white" stroke="#CCCCCC" stroke-linecap="round" stroke-linejoin="round"/>
<path d="M240.47 72.9846H255.088C256.02 73.0822 256.943 72.7097 257.491 72.0089C258.048 71.3082 258.154 70.3857 257.779 69.5962C257.404 68.8068 256.597 68.2568 255.655 68.1592H255.492C255.415 68.1592 255.165 67.627 255.165 67.5561C254.857 67.0238 254.502 66.5182 254.108 66.0481C252.743 64.3894 250.715 63.3072 248.476 63.0322C246.294 62.8548 244.113 63.4136 242.354 64.62C240.97 65.6046 239.74 66.8819 239.74 68.6205L239.25 68.7713C237.049 69.8268 237.943 72.9935 240.47 72.9935V72.9846Z" fill="white" stroke="#CCCCCC" stroke-linecap="round" stroke-linejoin="round"/>
</g>
<defs>
<clipPath id="clip0_3123_31264">
<rect width="370" height="145" fill="white"/>
</clipPath>
</defs>
</svg>
